REM Generated by IcecastMetadataRecorder
REM 2020-07-29T21:16:11.222Z
TITLE "isics-all"
FILE "isics-all.mp3" WAVE
  TRACK 1 AUDIO
    TITLE "2020-07-29T21:30:50.422Z TO:7300 Department of Transportation - District 1 Highway Helper - Des Moines Area FROM:14948"
    INDEX 01 14:39:15
  TRACK 2 AUDIO
    TITLE "2020-07-29T21:30:52.534Z TO:7300 Department of Transportation - District 1 Highway Helper - Des Moines Area FROM:14966"
    INDEX 01 14:41:23
  TRACK 3 AUDIO
    TITLE "2020-07-29T21:30:54.646Z TO:1101 Polk County - Westcom Law Enforcement 1 FROM:1004"
    INDEX 01 14:43:31
  TRACK 4 AUDIO
    TITLE "2020-07-29T21:30:56.726Z TO:7300 Department of Transportation - District 1 Highway Helper - Des Moines Area FROM:14948"
    INDEX 01 14:45:37
  TRACK 5 AUDIO
    TITLE "2020-07-29T21:31:17.750Z TO:1101 Polk County - Westcom Law Enforcement 1 FROM:8633"
    INDEX 01 15:06:39
  TRACK 6 AUDIO
    TITLE "2020-07-29T21:31:19.830Z TO:7300 Department of Transportation - District 1 Highway Helper - Des Moines Area FROM:14966"
    INDEX 01 15:08:45
  TRACK 7 AUDIO
    TITLE "2020-07-29T21:31:22.646Z TO:1101 Polk County - Westcom Law Enforcement 1 FROM:1004"
    INDEX 01 15:11:31
  TRACK 8 AUDIO
    TITLE "2020-07-29T21:31:32.438Z TO:7300 Department of Transportation - District 1 Highway Helper - Des Moines Area FROM:14948"
    INDEX 01 15:21:16
  TRACK 9 AUDIO
    TITLE "2020-07-29T21:31:35.926Z TO:1101 Polk County - Westcom Law Enforcement 1 FROM:8633"
    INDEX 01 15:24:52
  TRACK 10 AUDIO
    TITLE "END"
    INDEX 01 15:26:60